<?xml version="1.0" encoding="UTF-8" standalone="no"?>
<svg
   width="150mm"
   height="150mm"
   version="1.1"
   viewBox="0 0 150 150"
   id="svg13"
   xmlns="http://www.w3.org/2000/svg"
   xmlns:svg="http://www.w3.org/2000/svg">
  <defs
     id="defs13" />
  <g
     id="g14">
    <circle
       cx="75.000168"
       cy="75"
       r="75"
       fill="#ffffff"
       stop-color="#000000"
       id="circle1" />
    <g
       id="g13">
      <path
         d="m 64.526519,46.18532 c -0.128095,-0.218036 -5.033114,-9.691583 -5.033114,-9.720195 0,-0.04522 2.522994,-0.84701 3.522643,-1.119553 2.669187,-0.72749 5.88362,-1.287472 8.285727,-1.443589 0.518476,-0.03368 1.087811,-0.08364 1.265119,-0.111017 l 0.322498,-0.04979 V 44.64879 l -0.769032,0.06627 c -2.226498,0.1919 -6.000484,0.952795 -7.382556,1.488475 -0.09,0.03487 -0.185078,0.02687 -0.211321,-0.01778 z"
         fill="#e31b25"
         id="path1"
         style="stroke:#e2d7c3;stroke-width:0.236572;fill:#965f3a;fill-opacity:1;stroke-opacity:1" />
      <path
         d="m 49.943095,48.014731 c -2.114373,-2.126533 -3.820034,-3.905514 -3.790438,-3.95344 0.0902,-0.146031 2.715682,-2.092824 3.665616,-2.718007 0.491187,-0.323312 1.361954,-0.870007 1.935009,-1.214868 1.191888,-0.717368 4.429927,-2.381363 4.491265,-2.308133 0.02252,0.02685 0.523152,0.986594 1.112489,2.132703 1.708076,3.321372 2.931259,5.686641 3.432693,6.637648 l 0.465194,0.882248 -1.501082,0.759143 c -1.703426,0.861495 -3.034622,1.674009 -4.684847,2.859638 -0.626711,0.450262 -1.171502,0.812121 -1.210576,0.804136 -0.03908,-0.008 -1.800977,-1.754392 -3.91535,-3.880925 z"
         fill="#e31b25"
         id="path2"
         style="stroke:#e2d7c3;stroke-width:0.236572;fill:#965f3a;fill-opacity:1;stroke-opacity:1" />
      <path
         d="m 34.854483,58.194515 c 0.100376,-0.261554 1.106587,-2.094255 1.598275,-2.911052 1.694932,-2.815736 4.63701,-6.560663 6.683071,-8.506937 l 0.336849,-0.320406 7.831236,7.833203 -0.792441,0.816054 c -0.435848,0.448832 -0.815044,0.839973 -0.842673,0.869194 -0.2392,0.253077 -1.140207,1.355784 -1.482663,1.814478 l -0.425932,0.570569 h -6.484483 c -6.007011,0 -6.479922,-0.01216 -6.421266,-0.165094 z"
         fill="#414a51"
         id="path3"
         style="stroke:#e2d7c3;stroke-width:0.236572;fill:#7c6e68;fill-opacity:1;stroke-opacity:1" />
      <path
         d="m 94.518657,61.205978 c -0.718504,-0.160981 -1.391461,-0.563773 -1.814479,-1.086022 -0.623966,-0.770364 -0.711199,-1.022449 -0.712227,-2.058489 -9.83e-4,-1.114456 0.201021,-1.635025 0.904065,-2.328162 0.709599,-0.699557 1.079495,-0.822144 3.938329,-1.305176 0.917388,-0.154999 1.72113,-0.317214 1.786134,-0.360473 0.12839,-0.08545 -0.271121,-0.482022 -1.678837,-1.666498 -3.41025,-2.869384 -7.886851,-5.220883 -12.375792,-6.500755 -2.127427,-0.606558 -4.761027,-1.076366 -6.665545,-1.188849 -0.545756,-0.03226 -1.092818,-0.07905 -1.215584,-0.103952 l -0.223266,-0.04529 V 33.726231 l 1.066798,0.06585 c 6.470444,0.399421 12.044066,1.823867 17.577004,4.492606 3.705585,1.787029 6.949883,3.936809 10.140443,6.719194 0.34303,0.29917 0.65232,0.526246 0.68732,0.504626 0.035,-0.02163 -0.15372,-1.191442 -0.4193,-2.599533 -0.6871,-3.642637 -0.62434,-4.419824 0.44231,-5.475892 1.28703,-1.274329 3.36054,-1.295341 4.74109,-0.04807 0.64184,0.579859 0.83831,1.136094 1.32735,3.757534 2.41105,12.923899 2.56323,13.795686 2.51486,14.401913 -0.0861,1.081909 -0.81151,2.136905 -1.78301,2.592827 -0.2864,0.134425 -1.33173,0.374743 -2.6792,0.615964 -5.95014,1.0651 -14.071973,2.477036 -14.514573,2.523084 -0.272882,0.02842 -0.742994,-0.0037 -1.044623,-0.0712 z"
         fill="#e31b25"
         id="path4"
         style="stroke:#e2d7c3;stroke-width:0.236572;fill:#965f3a;fill-opacity:1;stroke-opacity:1" />
      <path
         d="m 70.259744,120.21654 c -5.944153,-0.58499 -10.556216,-1.83549 -15.480245,-4.19638 -8.085083,-3.87744 -14.962539,-10.37828 -19.32326,-18.266388 -0.766653,-1.386722 -1.564834,-3.00735 -1.564834,-3.177237 0,-0.06255 2.210135,-0.09731 6.187895,-0.09731 h 6.187896 l 0.376684,0.570568 c 1.216388,1.842555 3.261375,4.178317 5.092306,5.816207 5.06879,4.53454 11.116842,7.33373 17.829151,8.25175 1.646917,0.22526 5.151946,0.30241 6.914832,0.1522 5.654005,-0.48178 10.731468,-2.25511 15.510647,-5.41724 3.328436,-2.202 6.374055,-5.154182 8.617004,-8.35261 l 0.71063,-1.013329 12.44822,-0.0076 -0.34707,0.76162 c -0.80555,1.767714 -2.34399,4.418929 -3.64622,6.283749 -6.67618,9.56014 -16.691803,16.02209 -28.05364,18.09918 -2.701644,0.49408 -3.803135,0.58279 -7.541534,0.60749 -1.937512,0.0129 -3.701293,0.006 -3.919642,-0.0157 z"
         id="path5"
         style="fill:#7c6e68;stroke:#e2d7c3;stroke-width:0.236572;fill-opacity:1;stroke-opacity:1" />
      <path
         d="m 73.294456,69.285427 q -2.72069,0.03278 -4.064671,1.475063 -1.343982,1.409522 -1.507878,4.031856 l 13.701801,-0.03278 v 4.097397 H 67.688824 q 0,1.245626 0.262233,2.392897 0.295013,1.147271 1.147271,2.097921 0.753921,0.885037 1.77004,1.114456 1.048915,0.196675 2.130646,0.196675 0.06556,0 0.131117,0 0.09834,0 0.163895,0 l 8.129253,-0.03278 v 4.097396 h -8.358778 q -1.999566,0 -3.867961,-0.360571 -1.835669,-0.360571 -3.474628,-1.671773 -1.96675,-1.606233 -2.753504,-3.900775 -0.7867,-2.327357 -0.852267,-4.75298 -0.03278,-0.524467 -0.03278,-1.01619 0.03278,-0.491688 0.06556,-0.983376 0.360571,-5.572459 3.015666,-8.194793 2.687874,-2.622334 8.030897,-2.622334 l 8.227608,-0.03278 v 4.097397 H 73.29384 Z"
         id="path6"
         style="fill:#7c6e68;stroke:#e2d7c3;stroke-width:0.236572;fill-opacity:1;stroke-opacity:1" />
      <path
         d="m 85.652365,71.449246 h 9.341974 q 1.507878,0.03278 2.884585,0.360571 1.409523,0.295013 2.523976,1.409522 0.95056,0.917835 1.31117,2.163462 0.39335,1.245626 0.39335,2.556793 V 88.723816 H 89.847866 q -2.655149,0 -4.064671,-1.442247 -1.409522,-1.475063 -1.278352,-4.064671 0.229454,-3.114022 2.196187,-4.031857 1.96675,-0.917834 4.687439,-0.917834 l 5.998607,-0.03278 q 0.09834,-2.130647 -1.114456,-2.655149 -1.180086,-0.524467 -3.015666,-0.524467 l -7.60484,-0.03278 z m 6.064146,13.800157 h 5.70363 V 81.67642 h -5.375838 q -0.06556,0.03278 -0.131117,0.03278 -0.06556,0 -0.131116,0 -0.917835,0.03278 -1.704499,0.360571 -0.7867,0.295012 -0.81948,1.442247 -0.06556,1.278352 0.688363,1.507878 0.7867,0.229454 1.770129,0.262233 z"
         id="path7"
         style="fill:#7c6e68;stroke:#e2d7c3;stroke-width:0.236572;fill-opacity:1;stroke-opacity:1" />
      <path
         d="m 105.84652,85.117964 h 9.60395 q 0.0655,0.03278 0.13112,0.03278 0.0655,0 0.13112,0 0.81949,-0.03278 1.50788,-0.360571 0.68837,-0.327792 0.68837,-1.343982 0,-0.95056 -0.6556,-1.278352 -0.65558,-0.327792 -1.40952,-0.39335 -0.0983,0 -0.19667,0 -0.0983,0 -0.19668,0 l -3.9335,-0.03278 q -2.7535,0.03278 -4.35965,-0.753921 -1.57341,-0.7867 -1.60623,-3.999041 -0.0328,-3.015666 1.63896,-4.261293 1.67177,-1.245626 4.458,-1.245626 l 9.80067,-0.03278 v 3.605709 h -8.06371 q -0.0983,0.03278 -0.19668,0.03278 -0.0655,0 -0.16389,0 -0.22947,0 -0.45892,0 -0.19667,0 -0.45891,0 -0.59002,0.03278 -1.14727,0.262233 -0.52447,0.229454 -0.68836,0.852258 -0.26224,1.147272 0.45891,1.573419 0.72115,0.426129 1.67177,0.426129 l 4.13021,-0.03278 q 2.42562,0.03278 4.06467,1.147271 1.63896,1.08173 1.73732,3.769605 0,0.03278 0,0.06556 0,0 0,0.03278 0.0328,2.097921 -1.21281,3.835145 -1.21282,1.704499 -3.50736,1.704499 h -11.76777 v -3.605709 z"
         id="path8"
         style="fill:#7c6e68;stroke:#e2d7c3;stroke-width:0.236572;fill-opacity:1;stroke-opacity:1" />
      <path
         d="m 123.87238,71.449246 h 3.21238 v -6.260857 h 4.55635 v 6.260857 h 4.81852 v 3.441813 h -4.81852 v 6.981982 q -0.0328,2.589608 1.18009,3.015666 1.21281,0.426129 3.34346,0.426129 0.0655,0 0.13111,0 0.0983,0 0.1639,0 v 3.409088 h -4.16294 q -2.5896,0 -3.90077,-1.442248 -1.31117,-1.442248 -1.31117,-3.933501 v -8.457044 h -3.21238 z"
         id="path9"
         style="fill:#7c6e68;stroke:#e2d7c3;stroke-width:0.236572;fill-opacity:1;stroke-opacity:1" />
      <path
         d="m 12.026454,81.643336 q 0,-1.868395 0.491687,-3.343457 0.524467,-1.507878 2.327357,-2.523979 1.180086,-0.655583 2.556794,-0.819479 1.376707,-0.196675 2.786229,-0.196675 0.39335,0 0.753921,0 0.39335,0 0.7867,0 0.721142,0.03278 1.409523,0.03278 0.721142,0 1.376707,-0.03278 1.409522,-0.06556 2.097921,-0.917835 0.688362,-0.885037 0.524467,-2.294542 -0.196675,-1.638958 -1.343982,-1.934025 -1.147271,-0.327791 -2.491253,-0.327791 l -11.276,-0.03278 v -4.064671 h 12.324826 q 0.163896,0.03278 0.327792,0.03278 0.196675,0 0.39335,0 0.163896,0 0.327792,0 0.163895,0 0.327791,0 1.048916,0 2.065106,0.131116 1.048916,0.131117 1.96675,0.655584 1.507878,0.819479 2.163462,2.327357 0.688362,1.475062 0.7867,3.081296 0,0.06556 0,0.131116 0,0.03278 0,0.06556 0.163896,3.572983 -1.671774,5.474193 -1.802854,1.90121 -5.408563,1.90121 l -4.458004,-0.03278 q -2.9174,0.03278 -3.409087,1.376707 -0.458909,1.311167 -0.426129,3.605709 0,0.163896 0,0.39335 0,0.196675 0,0.39335 l 15.275487,-0.03278 v 4.031856 H 12.026239 Z"
         fill="#e31b25"
         id="path10"
         style="stroke:#e2d7c3;stroke-width:0.236572;fill:#965f3a;fill-opacity:1;stroke-opacity:1" />
      <path
         d="m 43.724352,69.220155 q -1.475063,0.03278 -2.655149,0.557246 -1.180086,0.524467 -1.180086,2.327357 0,1.77004 1.180086,2.294542 1.180086,0.524467 2.655149,0.524467 l 3.572983,-0.03278 q 1.475063,0.03278 2.655149,-0.491688 1.180086,-0.524467 1.180086,-2.294542 0.03278,-1.802854 -1.180086,-2.327357 -1.180086,-0.524467 -2.655149,-0.524467 z m -0.03278,9.702313 q -1.507877,0.03278 -2.687874,0.622805 -1.180086,0.557246 -1.147271,2.294542 -0.03278,1.802854 1.147271,2.360082 1.180086,0.524467 2.687874,0.524467 l 3.605709,-0.03278 q 1.475063,0.03278 2.655149,-0.491688 1.180086,-0.557246 1.180086,-2.360082 0,-1.737314 -1.180086,-2.294542 -1.180086,-0.590026 -2.655149,-0.590026 z m -5.998606,-1.999565 q -1.90121,-1.442248 -2.753504,-3.245192 -0.819479,-1.802854 -0.131117,-4.261292 0.753921,-2.720689 2.85177,-3.441813 2.130647,-0.721142 4.621899,-0.753921 l 6.359213,-0.03278 q 2.458438,0.06556 4.6219,0.7867 2.163461,0.721142 2.884585,3.441813 0.09834,0.426129 0.163895,0.852267 0.06556,0.39335 0.06556,0.81948 0.03278,0.721141 -0.131117,1.442247 -0.131117,0.688363 -0.39335,1.343982 -0.39335,0.983375 -1.081731,1.704499 -0.655583,0.721142 -1.507877,1.376708 1.147271,0.590025 1.96675,1.376707 0.852259,0.753921 1.212812,2.065106 0.131116,0.458908 0.196675,0.983375 0.06556,0.491688 0.06556,0.983375 0,0.524467 -0.06556,1.048916 -0.03278,0.491687 -0.163896,0.95056 -0.688363,2.491253 -2.720689,3.441813 -1.999566,0.917835 -4.359648,0.917835 h -7.801461 q -2.392898,0 -4.425188,-0.917835 -1.999566,-0.95056 -2.687875,-3.441813 -0.131116,-0.458908 -0.196675,-0.95056 -0.03278,-0.524467 -0.03278,-1.048916 0,-0.491687 0.06556,-0.983375 0.09834,-0.524467 0.229455,-0.983375 0.360571,-1.311167 1.180086,-2.065106 0.819479,-0.753921 1.96675,-1.376707 z"
         fill="#e31b25"
         id="path11"
         style="stroke:#e2d7c3;stroke-width:0.236572;fill:#965f3a;fill-opacity:1;stroke-opacity:1" />
      <path
         d="m 141.45117,59.687729 q -0.78872,0 -1.46907,0.282977 -0.68035,0.282977 -1.24634,0.848932 -0.56595,0.565955 -0.85495,1.258324 -0.289,0.686368 -0.289,1.469072 0,0.776676 0.289,1.463081 0.289,0.680351 0.85495,1.246342 0.56595,0.565954 1.24634,0.854949 0.68034,0.282978 1.46907,0.282978 0.79475,0 1.47506,-0.282978 0.68637,-0.288995 1.25234,-0.854949 0.55993,-0.559929 0.83688,-1.240262 0.28298,-0.680351 0.28298,-1.469072 0,-0.800765 -0.28298,-1.481143 -0.28297,-0.686369 -0.83688,-1.246342 -0.56596,-0.565955 -1.25234,-0.848932 -0.68034,-0.282977 -1.47506,-0.282977 z m 0,-0.62014 q 0.91515,0 1.70387,0.331145 0.79474,0.331144 1.45101,0.987398 0.65627,0.656263 0.98141,1.44502 0.32513,0.788721 0.32513,1.715944 0,0.915152 -0.32513,1.703873 -0.32512,0.782704 -0.98141,1.43894 -0.65627,0.656263 -1.45101,0.987399 -0.78872,0.331144 -1.70387,0.331144 -0.91515,0 -1.70986,-0.331144 -0.78872,-0.331145 -1.44502,-0.987399 -0.65627,-0.656263 -0.98141,-1.43894 -0.32512,-0.788721 -0.32512,-1.703873 0,-0.927223 0.32512,-1.715944 0.32513,-0.788721 0.98141,-1.44502 0.65626,-0.656263 1.44502,-0.987398 0.79474,-0.331145 1.70986,-0.331145 z m -0.16255,2.492594 h -0.74057 v 1.661759 h 0.74057 q 0.66228,0 0.92114,-0.186643 0.26491,-0.186642 0.26491,-0.638201 0,-0.457576 -0.26491,-0.644219 -0.26492,-0.192669 -0.92114,-0.192669 z m 0.0421,-0.62014 q 1.05965,0 1.58343,0.361251 0.52381,0.355224 0.52381,1.083697 0,0.517788 -0.3191,0.85495 -0.31309,0.337163 -0.89108,0.439515 0.1445,0.04817 0.34318,0.282977 0.20471,0.228793 0.48167,0.668307 l 0.82484,1.342641 h -1.03559 l -0.77668,-1.258323 q -0.35522,-0.57799 -0.57799,-0.72851 -0.21675,-0.156537 -0.54187,-0.156537 h -0.39738 v 2.143432 h -0.93321 v -5.033382 z"
         fill="#b6b7b9"
         id="path12"
         style="stroke:#e2d7c3;stroke-width:0.236572;fill:#ccbdb5;fill-opacity:1;stroke-opacity:1" />
    </g>
  </g>
</svg>
